<svg width="40" height="39" viewBox="0 0 40 39"><path d="M18.4016727,27.8422472 L18.5573091,27.5780774 C19.4438545,27.8238509 20.3587636,27.9489453 21.2773091,27.9489453 C22.0925818,27.9489453 22.9245818,27.848134 23.7522182,27.6553415 L24.2896727,27.5273038 L24.4169455,28.4000208 C24.0300364,31.7267943 16.0271273,34.3258132 15.6925818,34.4376623 L14.9093091,34.7982283 L15.3776727,33.7231528 C15.4278545,33.5796623 16.6867636,30.3301528 18.4016727,27.8422472 L18.4016727,27.8422472 Z M11.2569455,15.2952849 C10.9289455,16.8008321 10.9245818,18.3019642 11.2438545,19.7648321 L11.0518545,19.9274547 C8.62349091,22.0054925 4.4744,23.5956623 4.29549091,23.6596811 L3.7704,23.8414358 L3.93476364,23.3727 C3.96385455,23.2880774 4.79367273,21.1504358 5.89912727,19.0392849 C7.43221818,16.1054547 8.67221818,14.6624547 10.1427636,14.6624547 C10.4453091,14.6624547 10.7442182,14.7272094 11.0314909,14.8508321 L11.3245818,14.978134 L11.2569455,15.2952849 Z M24.8802182,4.70568113 C25.1456727,4.58500189 25.4111273,4.47315283 25.7013091,4.35541698 L25.7682182,4.32745472 C26.2991273,4.11626604 26.8409455,3.92862453 27.3805818,3.76232264 L27.4096727,3.75349245 C27.6642182,3.6777 27.9158545,3.60705849 28.1696727,3.53936038 L28.2431273,3.52096415 C28.7464,3.38924717 29.2656727,3.27592642 29.7958545,3.17732264 L29.8525818,3.16702075 C30.0853091,3.12507736 30.3165818,3.08828491 30.5638545,3.0522283 L30.6045818,3.04339811 C31.0656727,2.97790755 31.5434909,2.92566226 32.0256727,2.88445472 L32.1282182,2.87709623 C32.3340364,2.8616434 32.5384,2.84692642 32.7624,2.83662453 L32.7936727,2.83515283 C33.0147636,2.8226434 33.2322182,2.8167566 33.4416727,2.81234151 L33.5049455,2.81013396 C33.6496727,2.80866226 33.7900364,2.80792642 33.9304,2.80792642 L34.1762182,2.80866226 C34.3522182,2.81013396 34.5260364,2.81381321 34.6940364,2.8197 L34.7405818,2.8211717 C34.9260364,2.82558679 35.1013091,2.83515283 35.2794909,2.84398302 L35.4060364,2.85281321 C35.5362182,2.8616434 35.6634909,2.86900189 35.7900364,2.88003962 L35.9231273,2.89181321 C36.0794909,2.90432264 36.2336727,2.91903962 36.3791273,2.93449245 L36.7107636,2.96760566 L36.7253091,3.30609623 C36.7333091,3.44811509 36.7384,3.5997 36.7427636,3.75349245 L36.7456727,3.86828491 C36.7493091,4.02207736 36.7514909,4.17807736 36.7500364,4.35541698 C36.7500364,4.53643585 36.7471273,4.72407736 36.7420364,4.90509623 L36.7405818,4.95071887 C36.6671273,7.31941698 36.1449455,10.9405302 34.0685818,14.7301528 L33.9384,14.9685679 L33.6707636,14.9273604 C27.2664,13.9295491 25.2358545,7.75503962 24.6605818,5.14645472 L24.5922182,4.83519057 L24.8802182,4.70568113 Z M19.3267636,8.42245472 L19.4482182,8.31207736 C19.6300364,8.14798302 19.8104,7.98462453 19.9929455,7.83083208 L20.0816727,7.75356792 C20.2802182,7.58579434 20.4802182,7.42096415 20.6984,7.25024717 L20.7216727,7.23185094 C20.9180364,7.08100189 21.1122182,6.93162453 21.3224,6.77856792 L21.8496727,6.47098302 L21.9798545,6.94781321 C23.8627636,13.7720774 28.2096727,16.3593226 30.6431273,17.2945868 C31.5369455,17.6625113 33.3071273,18.0532472 35.4140364,18.3483226 C39.6954909,11.8228132 39.7427636,5.37309623 39.3849455,2.08973774 L39.3674909,1.93153019 C39.3674909,1.93153019 39.3558545,1.47456792 38.9638545,1.01539811 C38.4082182,0.359756604 37.7725818,0.327379245 37.7725818,0.327379245 C36.8511273,0.178001887 35.3769455,-7.35849056e-05 33.5994909,-7.35849056e-05 C28.8642182,-7.35849056e-05 21.9944,1.24203962 16.1551273,7.1501717 C14.6467636,8.67558679 13.4511273,10.2333792 12.6038545,11.7808698 L12.4322182,12.0943415 L12.1071273,11.9464358 C11.5711273,11.7036057 11.0285818,11.5785113 10.4962182,11.5785113 C7.26930909,11.5785113 4.5464,16.0936811 2.83003636,19.8803604 C1.38058182,23.0761528 0.391490909,26.3102094 0.000218181818,27.6796245 C1.94276364,27.0659264 7.68676364,25.1115113 11.6867636,22.3638509 L12.0438545,22.1180774 L12.2467636,22.5029264 C13.1173091,24.1600585 14.1398545,25.1203415 14.1638545,25.1431528 C14.1704,25.1490396 14.8278545,25.8171906 15.9871273,26.4941717 L16.3354909,26.6950585 L16.1245818,27.0401717 C13.6722182,31.0152283 11.6671273,36.6334358 11.0969455,38.4745302 C12.5304,38.0565679 17.2460364,36.4193038 20.5856727,34.8055868 C24.4736727,32.9313792 27.9834909,31.2514358 27.1900364,26.6177943 L27.1245818,26.3315491 L27.4882182,26.1262472 L27.5442182,26.1049075 C30.6038545,24.3984736 33.1413091,22.2085868 34.0707636,21.3630962 C32.2227636,21.4263792 26.8511273,20.0407755 24.9674909,19.2880019 C25.2504,19.5426057 28.1049455,21.8134358 28.1049455,21.8134358 L27.7202182,22.100417 C25.6009455,23.6802849 23.5151273,24.4853038 21.5224,24.4853038 C19.6969455,24.4853038 18.3296727,23.8083226 17.5027636,23.2373038 C17.5027636,23.2373038 17.3842182,23.1556245 17.3413091,23.1225113 C17.3413091,23.1225113 17.2176727,23.0305302 17.1616727,22.9856434 C17.1616727,22.9856434 17.0576727,22.9039642 17.0380364,22.8855679 C17.0133091,22.8679075 16.9245818,22.7921151 16.8794909,22.7531151 L16.7914909,22.6714358 C16.7529455,22.6397943 16.7194909,22.6066811 16.6838545,22.5720962 L16.6824,22.5691528 L16.6751273,22.5691528 L16.5616727,22.4528887 C15.2649455,21.1246811 11.5776727,16.2364358 18.6845818,9.04571887 C18.8984,8.83085094 19.1114909,8.62554906 19.3267636,8.42245472 L19.3267636,8.42245472 Z M33.8591273,8.46219057 C34.6533091,7.66011509 34.6533091,6.35545472 33.8584,5.55190755 C33.0627636,4.74909623 31.7769455,4.74909623 30.9820364,5.55190755 C30.1885818,6.35545472 30.1900364,7.65790755 30.9820364,8.46219057 C31.7776727,9.26573774 33.0656727,9.26573774 33.8591273,8.46219057 L33.8591273,8.46219057 Z" fill="#F68E1E" /></svg>
